<?xml version="1.0" encoding="UTF-8"?>
<svg width="67px" height="67px" viewBox="0 0 67 67" version="1.1" xmlns="http://www.w3.org/2000/svg" xmlns:xlink="http://www.w3.org/1999/xlink">
    <!-- Generator: Sketch 52.5 (67469) - http://www.bohemiancoding.com/sketch -->
    <title>Group 3</title>
    <desc>Created with Sketch.</desc>
    <g id="Page-1" stroke="none" stroke-width="1" fill="none" fill-rule="evenodd">
        <g id="stopri_SP_TOP" transform="translate(-145.000000, -3705.000000)">
            <g id="Group-3" transform="translate(145.000000, 3705.000000)">
                <circle id="Oval" fill="#69ACE0" fill-rule="nonzero" cx="33.5" cy="33.5" r="33.5"></circle>
                <g id="logo-twitter" transform="translate(14.000000, 17.000000)" fill="#FFFFFF">
                    <path d="M40,3.90644557 C38.5283083,4.56902357 36.9467583,5.01692907 35.2866083,5.21826068 C36.9810417,4.18725574 38.282275,2.55459087 38.89495,0.609197503 C37.3093833,1.56391316 35.5530833,2.25723359 33.68375,2.6308886 C32.1867833,1.01170843 30.0539667,0 27.6937083,0 C23.1613333,0 19.4869833,3.73006153 19.4869833,8.33070733 C19.4869833,8.98371745 19.5595667,9.61945293 19.6994417,10.2292426 C12.8791083,9.8818464 6.83219167,6.5651834 2.784625,1.52489718 C2.078225,2.75534721 1.67358333,4.1863844 1.67358333,5.71315963 C1.67358333,8.60339622 3.1224,11.1533427 5.32435833,12.6473452 C3.97913333,12.6041248 2.71375833,12.2293108 1.607275,11.6053089 C1.6067,11.6401204 1.606575,11.6749404 1.606575,11.7100395 C1.606575,15.7465187 4.43534167,19.1136689 8.189575,19.8789473 C7.50089167,20.069239 6.7759,20.1710765 6.02749167,20.1710765 C5.498675,20.1710765 4.98458333,20.118855 4.48349167,20.0216703 C5.52781667,23.3313795 8.5585,25.7400496 12.1495667,25.8073547 C9.34093333,28.041688 5.80245,29.3735186 1.95763333,29.3735186 C1.295225,29.3735102 0.641966667,29.3340627 0,29.2571813 C3.63178333,31.6208798 7.94539167,33 12.579775,33 C27.6745583,33 35.9288583,20.3056698 35.9288583,9.29672511 C35.9288583,8.93554811 35.9208667,8.57626607 35.9051417,8.21901436 C37.508425,7.04441504 38.8998167,5.57710281 40,3.90644557 Z" id="Path"></path>
                </g>
            </g>
        </g>
    </g>
</svg>