<?xml version="1.0" encoding="UTF-8"?>
<svg width="67px" height="67px" viewBox="0 0 67 67" version="1.1" xmlns="http://www.w3.org/2000/svg" xmlns:xlink="http://www.w3.org/1999/xlink">
    <!-- Generator: Sketch 52.5 (67469) - http://www.bohemiancoding.com/sketch -->
    <title>Group 4</title>
    <desc>Created with Sketch.</desc>
    <g id="Page-1" stroke="none" stroke-width="1" fill="none" fill-rule="evenodd">
        <g id="stopri_SP_TOP" transform="translate(-52.000000, -3705.000000)">
            <g id="Group-4" transform="translate(52.000000, 3705.000000)">
                <circle id="Oval-Copy-2" fill="#DC2217" fill-rule="nonzero" cx="33.5" cy="33.5" r="33.5"></circle>
                <g id="logo-youtube" transform="translate(13.000000, 19.000000)">
                    <path d="M41.5805863,6.47190183 C41.5805863,6.47190183 41.1701675,3.53257682 39.9109288,2.23819468 C38.3138262,0.53932145 36.5236288,0.530906215 35.7026688,0.431460714 C29.825355,0 21.0091262,0 21.0091262,0 L20.9908737,0 C20.9908737,0 12.17482,0 6.2973225,0.431460714 C5.47631,0.530906215 3.68675125,0.53932145 2.0890625,2.23819468 C0.82980625,3.53257682 0.42002625,6.47190183 0.42002625,6.47190183 C0.42002625,6.47190183 0,9.92359642 0,13.3752821 L0,16.6112553 C0,20.0629054 0.420035,23.5146 0.420035,23.5146 C0.420035,23.5146 0.829815,26.4539428 2.08907125,27.7483161 C3.68676,29.4471893 5.78542125,29.3934722 6.7201575,29.5715251 C10.0802363,29.8987417 21.000035,30 21.000035,30 C21.000035,30 29.8253637,29.9865019 35.7026775,29.55505 C36.5236288,29.4555868 38.313835,29.4471893 39.9109375,27.7483161 C41.1701763,26.4539339 41.580595,23.5146 41.580595,23.5146 C41.580595,23.5146 42,20.0629054 42,16.6112553 L42,13.3752821 C42,9.92359642 41.5805863,6.47190183 41.5805863,6.47190183 Z" id="Path" fill="#FFFFFF"></path>
                    <polygon id="Path" fill="#DC2217" points="17.0018659 21 17 9 28 15.020905"></polygon>
                </g>
            </g>
        </g>
    </g>
</svg>